<?xml version="1.0" encoding="UTF-8"?>
<svg version="1.1" xmlns="http://www.w3.org/2000/svg" viewBox="168 147 204 216">
    <path d="M0 0 C21.87712723 -0.12032643 21.87712723 -0.12032643 31.38476562 -0.14648438 C37.80875314 -0.16424382 44.23260942 -0.18497647 50.65649414 -0.22631836 C140.74153238 -0.7903519 140.74153238 -0.7903519 174 31 C175.03060547 31.91845703 175.03060547 31.91845703 176.08203125 32.85546875 C193.85883736 49.29989097 201.97558399 74.94322931 203.12451172 98.55932617 C203.97757107 127.67196352 199.267765 156.75489208 179 179 C178.11570312 179.97710937 177.23140625 180.95421875 176.3203125 181.9609375 C154.33391926 205.46606657 123.23561458 213.30059261 92 215 C84.90291709 215.1746759 77.80171222 215.11682378 70.703125 215.09765625 C68.65761347 215.09578782 66.61210149 215.09436593 64.56658936 215.09336853 C59.22048679 215.08957677 53.87441201 215.07977555 48.52832031 215.06866455 C42.09370498 215.05656491 35.65908028 215.05203227 29.22445679 215.04621124 C19.48295195 215.03656158 9.74150792 215.01738175 0 215 C0 188.6 0 162.2 0 135 C18.48 135 36.96 135 56 135 C56 147.54 56 160.08 56 173 C61.445 172.7525 66.89 172.505 72.5 172.25 C74.18158203 172.18200195 75.86316406 172.11400391 77.59570312 172.04394531 C97.63200807 171.09354919 116.93848789 166.30911392 131 151 C142.75414205 137.17007128 145.10304499 117.49360415 144 100 C142.50714186 85.72945472 138.93494621 72.78305138 129 62 C128.36578125 61.31164062 127.7315625 60.62328125 127.078125 59.9140625 C112.35854982 45.47117107 92.14407738 43.69788046 72.625 42.8125 C67.13875 42.544375 61.6525 42.27625 56 42 C56 55.2 56 68.4 56 82 C37.52 82 19.04 82 0 82 C0 54.94 0 27.88 0 0 Z "
          fill="#FFFFFF" transform="translate(168,147)"/>
    <path d="M0 0 C7.280625 -0.061875 14.56125 -0.12375 22.0625 -0.1875 C24.34808838 -0.21481201 26.63367676 -0.24212402 28.98852539 -0.27026367 C30.81656365 -0.27903219 32.6446078 -0.28667526 34.47265625 -0.29296875 C35.87638489 -0.3159906 35.87638489 -0.3159906 37.30847168 -0.33947754 C46.01067876 -0.342934 51.76172608 2.03373225 58.203125 7.98828125 C63.38734595 13.79235471 65.3057939 21.31986848 65 29 C63.24826661 38.72068449 58.92610513 44.60355201 51.21875 50.58203125 C47.69538229 52.83376097 44.54034626 53.12511333 40.41503906 53.11352539 C39.50189941 53.11340454 38.58875977 53.11328369 37.64794922 53.11315918 C36.69678223 53.10804321 35.74561523 53.10292725 34.765625 53.09765625 C33.44473877 53.09614563 33.44473877 53.09614563 32.09716797 53.09460449 C28.81476536 53.08938133 25.53238134 53.07542006 22.25 53.0625 C14.9075 53.041875 7.565 53.02125 0 53 C0 35.51 0 18.02 0 0 Z "
          fill="#FA7C1F" transform="translate(233,229)"/>
</svg>
